<svg id="visual" viewBox="0 0 900 600" width="900" height="600" xmlns="http://www.w3.org/2000/svg" xmlns:xlink="http://www.w3.org/1999/xlink" version="1.1"><rect x="0" y="0" width="900" height="600" fill="#001220"></rect><path d="M0 358L21.5 356.8C43 355.7 86 353.3 128.8 358.3C171.7 363.3 214.3 375.7 257.2 387.5C300 399.3 343 410.7 385.8 416.2C428.7 421.7 471.3 421.3 514.2 418.7C557 416 600 411 642.8 401.5C685.7 392 728.3 378 771.2 381.3C814 384.7 857 405.3 878.5 415.7L900 426L900 601L878.5 601C857 601 814 601 771.2 601C728.3 601 685.7 601 642.8 601C600 601 557 601 514.2 601C471.3 601 428.7 601 385.8 601C343 601 300 601 257.2 601C214.3 601 171.7 601 128.8 601C86 601 43 601 21.5 601L0 601Z" fill="#fa7268"></path><path d="M0 441L21.5 443C43 445 86 449 128.8 442.7C171.7 436.3 214.3 419.7 257.2 414.2C300 408.7 343 414.3 385.8 420C428.7 425.7 471.3 431.3 514.2 431.2C557 431 600 425 642.8 428.2C685.7 431.3 728.3 443.7 771.2 439.8C814 436 857 416 878.5 406L900 396L900 601L878.5 601C857 601 814 601 771.2 601C728.3 601 685.7 601 642.8 601C600 601 557 601 514.2 601C471.3 601 428.7 601 385.8 601C343 601 300 601 257.2 601C214.3 601 171.7 601 128.8 601C86 601 43 601 21.5 601L0 601Z" fill="#ef5f67"></path><path d="M0 475L21.5 479.7C43 484.3 86 493.7 128.8 489.3C171.7 485 214.3 467 257.2 465C300 463 343 477 385.8 485.2C428.7 493.3 471.3 495.7 514.2 491C557 486.3 600 474.7 642.8 473.8C685.7 473 728.3 483 771.2 486.8C814 490.7 857 488.3 878.5 487.2L900 486L900 601L878.5 601C857 601 814 601 771.2 601C728.3 601 685.7 601 642.8 601C600 601 557 601 514.2 601C471.3 601 428.7 601 385.8 601C343 601 300 601 257.2 601C214.3 601 171.7 601 128.8 601C86 601 43 601 21.5 601L0 601Z" fill="#e34c67"></path><path d="M0 499L21.5 497.8C43 496.7 86 494.3 128.8 494.8C171.7 495.3 214.3 498.7 257.2 504.3C300 510 343 518 385.8 515.8C428.7 513.7 471.3 501.3 514.2 497.2C557 493 600 497 642.8 499.2C685.7 501.3 728.3 501.7 771.2 503C814 504.3 857 506.7 878.5 507.8L900 509L900 601L878.5 601C857 601 814 601 771.2 601C728.3 601 685.7 601 642.8 601C600 601 557 601 514.2 601C471.3 601 428.7 601 385.8 601C343 601 300 601 257.2 601C214.3 601 171.7 601 128.8 601C86 601 43 601 21.5 601L0 601Z" fill="#d53867"></path><path d="M0 540L21.5 539.7C43 539.3 86 538.7 128.8 540C171.7 541.3 214.3 544.7 257.2 546.5C300 548.3 343 548.7 385.8 545C428.7 541.3 471.3 533.7 514.2 535.3C557 537 600 548 642.8 553.5C685.7 559 728.3 559 771.2 560.5C814 562 857 565 878.5 566.5L900 568L900 601L878.5 601C857 601 814 601 771.2 601C728.3 601 685.7 601 642.8 601C600 601 557 601 514.2 601C471.3 601 428.7 601 385.8 601C343 601 300 601 257.2 601C214.3 601 171.7 601 128.8 601C86 601 43 601 21.5 601L0 601Z" fill="#c62368"></path></svg>